<?xml version="1.0" encoding="UTF-8"?><svg id="Layer_2" xmlns="http://www.w3.org/2000/svg" viewBox="0 0 123.63 30"><defs><style>.cls-1{fill:#2d67ff;stroke-width:0px;}</style></defs><g id="Layer_1-2"><path class="cls-1" d="M8.98,8.32c2,0,3.67.77,5.02,2.3,1.35,1.54,2.02,3.42,2.02,5.64s-.67,4.14-2.02,5.68c-1.34,1.54-3.02,2.3-5.02,2.3-1.76,0-3.15-.61-4.17-1.83v7.59H0V8.73h4.65v1.63c1.05-1.36,2.49-2.05,4.33-2.05ZM7.82,12.81c-.95,0-1.72.33-2.32.98-.6.65-.9,1.48-.9,2.49s.3,1.83.9,2.49c.6.65,1.37.98,2.32.98s1.73-.33,2.33-.99c.6-.66.9-1.48.9-2.48s-.3-1.82-.9-2.48c-.6-.66-1.38-.99-2.33-.99Z"/><path class="cls-1" d="M26,8.32c2.36,0,4.32.75,5.88,2.26s2.33,3.41,2.33,5.7-.78,4.19-2.33,5.7-3.51,2.26-5.88,2.26-4.31-.75-5.86-2.26-2.33-3.41-2.33-5.7.78-4.19,2.33-5.7,3.51-2.26,5.86-2.26ZM26,12.81c-.95,0-1.72.32-2.34.97-.62.65-.92,1.48-.92,2.5s.31,1.85.92,2.49c.62.65,1.4.97,2.34.97s1.74-.32,2.36-.97.92-1.48.92-2.49-.31-1.85-.92-2.5-1.4-.97-2.36-.97Z"/><path class="cls-1" d="M49.28,9.62l-1.34,3.76c-1.81-.77-3.47-1.16-4.97-1.17-1.17,0-1.76.31-1.76.92,0,.15.05.28.15.39s.28.2.54.29c.26.08.5.14.72.18.22.04.56.1,1.02.17l1.11.17c1.62.25,2.85.76,3.69,1.53.84.78,1.25,1.79,1.25,3.06,0,1.66-.62,2.96-1.85,3.9-1.23.94-2.95,1.4-5.14,1.4-3.03,0-5.35-.53-6.98-1.59l1.68-3.73c1.59.95,3.37,1.42,5.33,1.42,1.41,0,2.11-.33,2.11-.99,0-.29-.17-.51-.52-.65-.35-.15-.97-.29-1.86-.42l-.88-.12c-1.82-.27-3.16-.79-4.03-1.56-.87-.77-1.3-1.84-1.3-3.2,0-1.6.57-2.84,1.72-3.73,1.14-.88,2.75-1.32,4.81-1.32,1.21,0,2.28.1,3.21.28.93.19,2.03.53,3.29,1.01Z"/><path class="cls-1" d="M54.61.88c.58-.58,1.3-.88,2.16-.88s1.57.3,2.16.88c.58.59.87,1.31.87,2.16s-.29,1.57-.87,2.15c-.58.58-1.3.87-2.16.87s-1.57-.29-2.16-.87-.88-1.29-.88-2.15.29-1.59.88-2.17ZM59.33,10.48v13.36h-5.07s0-13.36,0-13.36c0-1.4,1.14-2.54,2.54-2.54h0c1.4,0,2.54,1.14,2.54,2.54Z"/><path class="cls-1" d="M81.7.88c.58-.58,1.3-.88,2.16-.88s1.57.3,2.16.88c.58.59.87,1.31.87,2.16s-.29,1.57-.87,2.15c-.58.58-1.3.87-2.16.87s-1.57-.29-2.16-.87-.88-1.29-.88-2.15.29-1.59.88-2.17ZM86.41,10.48v13.36h-5.07v-13.36c0-1.4,1.14-2.54,2.54-2.54h0c1.4,0,2.54,1.14,2.54,2.54Z"/><path class="cls-1" d="M98.36,8.32c2.36,0,4.32.75,5.88,2.26s2.33,3.41,2.33,5.7-.78,4.19-2.33,5.7-3.51,2.26-5.88,2.26-4.31-.75-5.86-2.26-2.33-3.41-2.33-5.7.78-4.19,2.33-5.7,3.51-2.26,5.86-2.26ZM98.36,12.81c-.95,0-1.72.32-2.34.97-.62.65-.92,1.48-.92,2.5s.31,1.85.92,2.49c.62.65,1.4.97,2.34.97s1.74-.32,2.36-.97.92-1.48.92-2.49-.31-1.85-.92-2.5-1.4-.97-2.36-.97Z"/><path class="cls-1" d="M118.27,8.32c1.55,0,2.83.51,3.84,1.52s1.52,2.38,1.52,4.08v9.92h-4.82v-8.21c0-.89-.21-1.58-.63-2.06s-1.01-.72-1.75-.72c-.71,0-1.29.24-1.76.73-.46.49-.69,1.2-.69,2.13v8.13h-4.82v-15.11h4.62v1.9c.92-1.54,2.42-2.31,4.5-2.31Z"/><path class="cls-1" d="M75.94,9.82v3.2h-4.27v11.23h-3.44v-11.23h-4.28v-3.2h11.99Z"/><rect class="cls-1" x="62.21" y="8.32" width="15.11" height="4.82"/><rect class="cls-1" x="67.54" y="9.62" width="4.82" height="14.63"/></g></svg>