<svg xmlns="http://www.w3.org/2000/svg" width="40px" height="40px" viewBox="0 0 24 24" fill="none">
        <path fill="#8794a9" d="M13.5.25c.38 0 .693.282.743.648L14.25 1v1h2.25c1.463 0 2.658 1.142 2.745 2.582l.005.168v11.5c0 1.519-1.231 2.75-2.75 2.75H3C1.481 19 .25 17.769.25 16.25V4.75C.25 3.231 1.481 2 3 2h2.25V1c0-.414.336-.75.75-.75.38 0 .693.282.743.648L6.75 1v1h6V1c0-.414.336-.75.75-.75zm4.25 8.25h-16v7.75c0 .647.492 1.18 1.122 1.244L3 17.5h13.5c.69 0 1.25-.56 1.25-1.25V8.5zM7.5 13c.414 0 .75.336.75.75 0 .38-.282.693-.648.743L7.5 14.5H5c-.414 0-.75-.336-.75-.75 0-.38.282-.693.648-.743L5 13h2.5zM5.25 3.5H3c-.69 0-1.25.56-1.25 1.25V7h16V4.75c0-.647-.492-1.18-1.122-1.244L16.5 3.5h-2.25V4c0 .414-.336.75-.75.75-.38 0-.693-.282-.743-.648L12.75 4v-.5h-6V4c0 .414-.336.75-.75.75-.38 0-.693-.282-.743-.648L5.25 4v-.5z" transform="translate(-1122 -964) translate(447 895) translate(675 69) translate(1.75 2)"></path>
</svg>
